<svg width="18.500000" height="23.500000" viewBox="0 0 18.5 23.5" fill="none" xmlns="http://www.w3.org/2000/svg" xmlns:xlink="http://www.w3.org/1999/xlink">
	<desc>
			Created with Pixso.
	</desc>
	<defs/>
	<path id="Vector" d="M17.75 22.75L17.75 20.08C17.75 18.66 17.27 17.31 16.42 16.31C15.57 15.31 14.41 14.75 13.21 14.75L5.28 14.75C4.08 14.75 2.92 15.31 2.07 16.31C1.22 17.31 0.75 18.66 0.75 20.08L0.75 22.75M10.25 9.75C7.76 9.75 5.75 7.73 5.75 5.25C5.75 2.76 7.76 0.75 10.25 0.75C12.73 0.75 14.75 2.76 14.75 5.25C14.75 7.73 12.73 9.75 10.25 9.75Z" stroke="#000000" stroke-opacity="1.000000" stroke-width="1.500000" stroke-linejoin="round" stroke-linecap="round"/>
</svg>
